<?xml version="1.0" encoding="UTF-8"?>
<svg id="vektor" xmlns="http://www.w3.org/2000/svg" viewBox="0 0 1430.4 804.6" preserveAspectRatio="none">
  <defs>
    <style>
      .cls-1, .cls-2, .cls-3 {
        fill: #838bc5;
      }

      .cls-2, .cls-4 {
        opacity: .7;
      }

      .cls-3 {
        opacity: .69;
      }
    </style>
  </defs>
  <polygon class="cls-2" points="463.45 728.59 459.57 733.31 439.29 730.91 424.29 715.81 435.69 677.99 442.41 518.28 423.75 507.84 405.93 442.2 422.26 352.61 413.39 340.51 410.95 350.52 404.35 351.12 405.12 343.86 394.39 344.97 395.95 334.69 387.35 332.43 391.51 324.13 383.74 311.39 369.86 306.82 364.84 293.85 353.32 295.71 326.74 277.99 302.16 207.54 297.09 198.24 290.67 196.12 308.65 242.26 305.83 247.87 295.11 236.31 292.32 223 286.37 218.54 287.22 204.44 280.13 196.84 278.76 182.44 264.94 173.7 253.94 154.81 252.11 125.75 254.22 103.48 261.27 102.92 264.37 95.31 255.35 96.43 245.98 95.08 241.81 85.72 231.47 80.26 233.64 73.03 226.02 75.28 222.94 69.84 222.92 62.59 217.28 64 205.72 57.24 170.15 54.56 161.92 58.16 158.34 51.88 153.08 58.66 126.74 73.51 113.22 76.97 99.12 83.18 68.38 89.1 62.56 86.85 123.37 71.34 137.9 61.89 107.3 58.36 102.22 53.29 107.86 45.39 127.89 42.57 127.89 40.03 104.48 39.19 111.29 30.08 170.75 23.11 250.98 23.11 258.73 28.19 356.59 29.9 353.11 24.18 355.18 20.29 334.87 20.58 328.55 16.6 367.98 13.51 376.55 13.51 363.92 20.57 367.3 25.65 384.98 33.12 391.56 27.63 378.3 23.11 380.32 16.6 390.99 19.45 409.89 16.06 453.33 23.45 453.31 30.08 477.33 33.39 471.93 38.06 459.24 35.24 456.42 39.19 468.07 44.71 462.9 48.78 433.01 39.75 418.06 42.85 418.35 39.19 434.42 32.42 412.99 27.91 403.4 34.96 408.87 43.37 389.3 45.96 387.33 37.78 358.56 55.54 367.3 65.13 401.58 70.74 405.66 87.13 412.99 85.44 413.55 74.72 422.86 69.93 415.81 58.08 417.22 49.06 425.4 43.98 449.56 53.62 463.96 53.62 494.81 83.79 495.05 94.18 503.79 97 506.89 109.69 484.9 104.61 487.96 92.01 476.72 96.72 454.44 92.49 450.49 100.38 462.34 98.13 467.13 103.48 461.21 108.56 469.39 115.05 479.54 110.53 481.14 116.32 465.72 122.1 458.95 125.48 460.08 116.74 442.66 128.54 445.29 135.91 437.06 138.73 429.06 149.17 423.7 156.23 423.38 173.14 413.83 182.16 404.57 200.1 412.64 226.15 406.78 236.02 401.14 223.9 399.45 203.31 387.74 198.38 378.87 200.77 377.74 207.26 370.69 207.26 362.79 205 353.58 219.53 348.44 243.53 357.62 272.46 366.51 276.69 371.78 262.19 381.92 253.02 386.68 257.03 382.9 272.19 385.95 278.85 380.58 291.94 402.07 294.5 399.17 312.78 399.56 328.85 408.75 339.08 411.51 333.3 421.52 341.25 425.4 328.85 441.34 313.8 446.82 321.35 440.4 328.85 437.34 336.91 441.68 338.83 441.68 331.35 449.91 321.69 457.34 328.85 477.67 327.52 487.96 353.57 508.18 361.08 529.29 414.41 554.85 421.91 571.24 454.14 557.99 486.38 547.6 554.45 527.62 565.81 507.62 621.92 492.62 633.59 492.07 644.7 476.79 653.59 473.45 664.14 464.57 663.59 462.9 669.42 469.57 671.92 471.05 675.99 451.79 694.98 464.84 696.64 448.73 715.26 456.52 720.36 454.29 725.26 463.45 728.59"/>
  <polygon class="cls-2" points="852.47 579.81 843.93 572.79 840.28 550.78 846.38 534.53 844.19 522.53 851.33 510.66 863.45 489.1 868.14 492.29 852.47 579.81"/>
  <polygon class="cls-2" points="1099.06 429.12 1093.89 432.7 1088.7 424.91 1078.2 424.16 1075.18 409.74 1069.46 394.56 1073.43 389.2 1078.01 393.26 1079.99 384.04 1087.93 380.46 1091.31 367.75 1097.27 364.77 1096.67 354.64 1101.44 344.51 1105.48 340.74 1103.74 353.69 1111.45 364.07 1105.48 370.73 1103.62 384.04 1108.69 393.19 1100.84 401.32 1102.04 414.23 1097.27 417.21 1099.06 429.12"/>
  <polygon class="cls-2" points="1132.26 354.33 1137.16 350.56 1130.27 329.46 1133.37 319.7 1125.38 305.71 1117.61 299.27 1120.05 289.94 1118.5 272.18 1110.78 278.18 1108.95 297.72 1114.28 305.93 1115.17 314.81 1121.38 307.93 1128.05 321.25 1125.82 325.47 1118.41 319.7 1118.41 326.8 1119.99 334.72 1127.38 332.13 1130.27 338.79 1125.6 343.23 1118.41 345.67 1116.28 353.66 1123.06 349.22 1125.29 351.31 1126.05 360.33 1132.49 361.88 1132.26 354.33"/>
  <polygon class="cls-2" points="1150.56 405.69 1150.56 413.23 1156.09 420.03 1154.47 428.13 1162.42 431.11 1167.78 436.38 1178.11 445.81 1177.29 450.97 1170.16 457.53 1170.56 462.29 1178.7 460.51 1183.87 468.05 1188.24 465.07 1193.6 468.65 1198.37 464.08 1197.57 456.33 1204.33 458.72 1214.06 474.81 1217.04 471.03 1208.1 452.36 1218.75 446.67 1228.07 429.93 1222.8 432.7 1218.23 442.18 1211.87 440.84 1208.3 447.2 1203.33 444.42 1198.76 429.32 1184.46 421.58 1174.53 413.46 1164.8 425.15 1162.62 420.19 1160.63 407.08 1150.56 405.69"/>
  <polygon class="cls-2" points="1189.88 480.94 1185.26 492.68 1187.24 518.3 1181.48 523.67 1167.51 509.83 1169.57 497.25 1173.14 488.51 1170.27 483.17 1165.4 487.52 1160.63 483.74 1154.07 485.93 1148.54 481.64 1144.7 487.52 1146.53 497.85 1141.96 503.01 1136.99 496.65 1130.04 501.42 1125.87 514.93 1118.06 518.5 1118.32 532.21 1092.11 554.45 1085.35 576.9 1094.09 606.69 1099.65 633.11 1109.78 626.28 1122.1 626.28 1126.07 618.01 1137.19 613.24 1144.54 616.22 1158.64 612.25 1160.63 626.28 1164.8 631.12 1172.03 623.29 1172.94 632.11 1186.16 648.71 1199.98 654.57 1214.22 647.87 1219.62 618.01 1228.16 600.14 1220.41 587.82 1220.41 570.94 1214.26 553.26 1201.12 532.22 1201.74 524.86 1197.77 516.91 1200.55 504.8 1195.96 500.35 1194.32 488.4 1189.88 480.94"/>
  <polygon class="cls-2" points="1196.92 663.59 1204.63 665.11 1209.42 662.08 1212.34 669.78 1205.68 680.52 1200.54 677.6 1196.92 663.59"/>
  <polygon class="cls-3" points="1273.51 694.3 1275.26 685.89 1289.29 675.29 1294.41 662.08 1297.55 665.79 1303.63 666.28 1304.57 661.26 1299.66 657.52 1305.03 652.06 1297.91 633.85 1302.59 634.91 1308.19 647.72 1316.36 647.6 1317.18 652.97 1310.64 658.92 1308.89 669.43 1298.5 670.72 1296.64 681.11 1289.86 683.21 1286 692.43 1273.51 694.3"/>
  <polygon class="cls-2" points="394.24 251.39 401.71 243.92 415.24 246.46 421.73 250.97 425.68 256.33 430.89 264.25 417.22 266.76 415.98 257.55 403.68 250.12 394.24 251.39"/>
  <polygon class="cls-2" points="430.89 274.2 435.73 270.36 435.23 264.7 450.16 266.76 453.48 273.82 445.47 273.96 442.19 278.37 432.92 278.37 430.89 274.2"/>
  <polygon class="cls-2" points="332.83 26.26 334.87 20.58 272.81 15.3 290.36 13.51 318.27 13.51 342.83 12.57 383.67 10.71 413.22 13.51 435.15 9.21 476.99 12.71 488.16 19.09 510.29 20.88 510.09 30.08 501.71 31.85 510.48 49.33 522.25 48.8 538.8 58.17 545.58 40.62 562.53 34.64 575.49 26.06 611.78 27.46 614.77 22.48 601.81 22.48 602.01 19.48 618.5 18.49 623.16 15.43 619.95 9.21 637.9 7.92 639.61 4.63 317.68 6.89 307.91 10.31 301.72 4.63 255.86 14.3 255.86 22.28 286.99 25.32 332.83 26.26"/>
  <polygon class="cls-2" points="597.39 36.5 609.19 33.19 617.56 35.04 629.01 30.65 642.49 34.44 637.68 41.7 613.16 45.9 606 44.01 606.99 39.81 597.39 36.5"/>
  <polygon class="cls-2" points="654.92 88.64 654.92 77.76 662.99 72.09 671.42 74.02 668.43 83.37 662.99 86.74 654.92 88.64"/>
  <polygon class="cls-2" points="673.54 91.96 672.54 85.99 676.29 79.07 681.15 77.39 669.74 70.65 665.81 62.42 676.54 57.13 686.74 52.92 686.09 56.43 678.53 62.56 685.45 63.17 682.09 68.03 689.19 75.33 690.69 80.37 698.38 80.99 697.23 85.24 693.87 91.96 673.54 91.96"/>
  <polygon class="cls-2" points="760.64 3.69 784.96 6.31 772.99 12.48 765.88 11.36 749.61 15.11 731.36 6.95 760.64 3.69"/>
  <polygon class="cls-2" points="889.28 21.63 889.52 17.34 919.45 15.66 929.72 9.09 886.15 12.11 871.19 18.28 875.68 21.83 889.28 21.63"/>
  <polygon class="cls-2" points="1117.85 415.4 1123.97 414.23 1123.06 407.08 1114.15 408.07 1116.14 402.3 1125.42 402.3 1128.32 397.34 1128.32 392.14 1120.71 399.13 1113.95 396.55 1112.36 402.3 1107.8 418.6 1108.95 434.68 1113.62 437.86 1111.45 421.58 1115.34 420.98 1120.11 438.66 1123.45 435.18 1117.85 415.4"/>
  <polygon class="cls-2" points="20.44 804.6 52.89 792.61 253.56 786.93 329.83 789.36 334.43 783.95 379.05 784.76 404.2 786.93 427.98 785.15 426.38 779.08 438.55 775.84 449.67 781.7 455.58 779.35 451.16 775.61 452.61 771.51 460.72 770.97 478.84 763.4 494.8 758.8 495.88 763.94 483.98 770.43 487.11 778.23 478.84 780.99 480.19 786.66 478.03 790.98 522.38 794.77 540.28 790.91 558.89 792.33 584.31 793.42 611.9 785.03 809.86 775.3 822.58 780.99 848.27 774.76 870.71 767.72 944.55 773.13 948.06 778.81 989.98 766.37 1114.92 772.32 1147.65 767.99 1295.34 784.49 1286.66 789.36 1262.32 793.15 1271.22 797.27 1322.98 793.09 1352.92 804.6 20.44 804.6"/>
  <g class="cls-4">
    <path class="cls-1" d="M1209.91,19.94l-60.58,4.7-11.97-5.99-44.52-1.12-11.41-6.36-98.76,4.29-9.73,5.55-9.91-4.41-10.66,5.61,1.68,10.85-6.73,6.55-5.42-6.73,2.06-16.46-14.22,1.87-.37,8.98-22.07-3.93-16.65,6.73-30.62-4.6-24.52,8.04-16.12,8.52-7.11-4.12.56-4.49,16.09,1.12,4.86-3.55-62.04-9.41-28.31,8.1-14.4,11.22-22.26,7.19,2.62,9.08,8.23,5.42,10.47-5.99,5.05,2.81,2.43,10.47,5.99,2.19,16.83-17.52-7.86-5.05,3.37-5.24,10.47-1.5,8.6-9.35,6.17,4.84-14.22,7.62.37,7.03h29.18l-1.12,2.58-18.14,2.67-.25,4.2-6.48.99-.56,5.8-4.3,6.73-9.47-4.84-9.42,7.27-4.37-2.57-7.6,1.07-4.49-4.38.19-8.71-8.42,5.99,3.48,8.4-13.59,4.13-10.1,6.4-5.7,6.35-18.43,4.27.37,6.92,10.29,3.93,1.87,7.29-5.24,11.22-17.21-3.53-6.92,3.34,3,10.35-6.84,15.64,8.57,4.15,2.58,6.8,6.06,2.15,5.28-4.89,9.19-.59,6.65-20.92,8.8-5.48,1.17-9,9.75-1.8,10.44-5.37,7.19,13.23,18.19,11.54-4.69,7.82-9.58,2.93,8.8,5.08,7.04-6.45,1.5-7.26,3.78-3.5-5.63-4.56-11.38-9.52-4.3-11.34,3.91-3.72,24.25,19.75-2.74,7.63,6.65,8.21.39,8.41,6.06,7.63,3.13-9.19-3.52-11.73,5.54-4.97,5.22,2.23-.78,8.02,7.82,12.51,7.43,1.56,8.6,1.96,7.63-5.48,5.08,2.15-7.82,32.66-9.19-2.74-9,2.54-16.43-4.5-7.24-7.82-7.04,1.56-5.87,14.08-10.95-5.67-17.6-11.34,2.15-9.58-1.78-6.79.61-5.92-11.54,1.76-17.6,1.76-12.91,8.21-15.25,1.56-12.71,15.45-.2,17.6-12.52,10.95-2.35,11.73-10.36,10.36,1.6,40.06-5.31,25.84,7.04,28.16,10.42,11.72,2.29,13.11,5.87,10.24,27.77.32,16.82-11.54,8.41,2.35,5.08,13.69,13.3-1.17,2.74,7.63-8.02,25.03,1.76,13.3,17.6,47.32-5.08,11.73,3.52,10.76-6.84,21.71,8.97,39.7-3.3,21.31,9.39,25.62,1.17,18.77,15.26,15.26,22.33-2.95,15.67-19.19,5.41-28.31,8.52-12.33.99-30.28,17.85-27.17-5.49-66.18,6.13-32.57,13.14-17.86,10.91-27.35,11.67-37.46-5.49-5.61-16.08,6-5.2-2.39-1.67-10.57-16.32-24.25-6.6-40.03-10.74-34.31,4.59-1.64,19.3,51.81,12.5,49.53,3.69,1.28,2.56-8.02,22.3-11.1,2.53-11.58,7.26-3.89,12.47-14.96,3.53-21-9.78-6.89-3.69-12.82-12.18,15.71-5.28-2.49,3.4-12.9-8.37-7.05-4.28-15.32,4.53-4.91,14.02,21.67,5.61.96,7.07-4.64,6.63,13.26,13.05,1.05,12.32-3.93,1.57,15.46,14.42,19.66,4.46,25.42,14.42,53.21,6.03,2.1,2.88-6.55,4.8,6.27-.87,16.01,6.81,2.88,3.15-20.18-7.34-22.02,5.07-27,22.9-38.48,15.03,9.66,3.55,29.23,12.19-6.39,2.9,54.56,7.39,19.48,6.22,23.76h-5.99l-8.44-22.65-10.61-1.11,8.62,22.42,7.33,25.31,12.43,32.86,8.98,3.53,2.78,6.31,4.67,5.04,11.99-.22,7.56,5.51,11.54-.4,6.3,4.22,3.47-7.33-20.49-3.48.99-5.65-9.58-2.19-13.54-1.55-3.33-9.87,4.22-12.52-4-4.7-.22-6.88-7.1-6.66,2.36-14.55-5.47-9.87.89-17.54-5.77-10.44-5.23-7.46-1.74-16.68,2.08-4.94,1.55-17.32,12.21,23.98,1.11,12.66,3.55-.67,2.9-9.67,10.2-10.31,1.55-20.87-13.1-21.09.19-13.9,6.88-9.17,2.02,19.38,7.93-4.41,2.54-15.42,10.23-10.12,23.22-27.86,2.08-34.39-7.29-17.78,6.36-2.97.58-8.13-9.62-1.44,3.61-11.21,6.73-2.06-3.14,8.5,11.7-4.23,2.85,11.82,5.86,2.69-3.62,13.58,11.01-1.58,1.31-13.17-5.23-15.14,6.37-2.66,4.66-11.8h9.29l19.16-22.99,3.97-14.41,4.48.22.9,21.11-2.99,4.86.94,7.29-7.29,2.24,4.06,8.63-3.5,17.18-13.84,14.59-6.36.56-11.41,7.86-4.11,12.35,6.55,3.93,1.94-10.85,5.17,2.43,4.86-6.17,5.05,1.68,4.99-5.43,4.92.38,7.64-8.6-.91-11.79,4.81-5.92,1.36-15.02,17.22-3.55,4.06-11.03-15.09,4.64-4.69-6.9,2.62-5.8-2.06-8.42,6.17-5.05-1.15-12.59-8.76-10.79-19.41,6.01-1.16-7.55,21.88-13.06,26.93-1.68,13.84-.75,11.97-7.11,21.51-2.81-4.68,9.17-16.46,5.42-7.29,13.65,1.5,17.77,16.83-13.65,10.07-12.65.78-8.48,23.94-4.11,17.4-7.86,15.34-.91,10.66-16.86-121.98-8.62ZM832.32,138.66l-16.33-6.12-8.84.34-3.4,4.42-13.61-.34-2.04-8.84,5.44-9.18,4.42-6.8h9.52v7.48l8.84-1.36v-7.48h9.18v9.18l12.58,13.26-5.78,5.44ZM876.54,162.81l-6.97-2.04-6.97-4.08,2.72-7.82-1.36-10.2-6.12-6.8v-10.88l7.48-10.2,9.52,17.69v13.27l6.46,21.09h-4.76Z"/>
  </g>
</svg>